<svg xmlns="http://www.w3.org/2000/svg" width="190mm" height="70mm" viewBox="0 0 190 70">
  <defs>
    <marker id="arrow" viewBox="0 0 10 10" refX="9" refY="5"
            markerWidth="3.2" markerHeight="3.2" orient="auto-start-reverse">
      <path d="M 0 0 L 10 5 L 0 10 z" fill="#333333"/>
    </marker>
  </defs>
  <rect x="0" y="0" width="190" height="70" fill="white"/>
  <rect x="4.00" y="24.00" width="42.00" height="34.00" rx="2" fill="#FAFAFA" stroke="#333333" stroke-width="0.7"/>
  <text x="25.00" y="30.50" text-anchor="middle" font-family="Helvetica, Arial, sans-serif" font-size="4.3" font-weight="600" fill="#1A1A1A">Sources</text>
  <text x="25.00" y="36.00" text-anchor="middle" font-family="Helvetica, Arial, sans-serif" font-size="4.3" font-style="italic" fill="#1A1A1A">s(t)</text>
  <polyline points="7.00,40.58 7.46,40.09 7.91,39.63 8.37,39.22 8.82,38.88 9.28,38.65 9.73,38.52 10.19,38.51 10.65,38.62 11.10,38.84 11.56,39.15 12.01,39.55 12.47,40.01 12.92,40.50 13.38,40.99 13.84,41.47 14.29,41.89 14.75,42.23 15.20,42.49 15.66,42.63 16.11,42.66 16.57,42.58 17.03,42.37 17.48,42.07 17.94,41.68 18.39,41.24 18.85,40.75 19.30,40.25 19.76,39.78 20.22,39.35 20.67,38.98 21.13,38.71 21.58,38.55 22.04,38.50 22.49,38.57 22.95,38.75 23.41,39.04 23.86,39.41 24.32,39.85 24.77,40.34 25.23,40.83 25.68,41.31 26.14,41.75 26.59,42.13 27.05,42.41 27.51,42.60 27.96,42.67 28.42,42.62 28.87,42.45 29.33,42.18 29.78,41.82 30.24,41.39 30.70,40.91 31.15,40.42 31.61,39.93 32.06,39.48 32.52,39.10 32.97,38.79 33.43,38.59 33.89,38.50 34.34,38.53 34.80,38.68 35.25,38.93 35.71,39.28 36.16,39.70 36.62,40.17 37.08,40.67 37.53,41.16 37.99,41.61 38.44,42.01 38.90,42.33 39.35,42.55 39.81,42.66 40.27,42.65 40.72,42.52 41.18,42.28 41.63,41.95 42.09,41.54 42.54,41.08 43.00,40.58" fill="none" stroke="#E69F00" stroke-width="0.9" stroke-linejoin="round" stroke-linecap="round"/>
  <polyline points="7.00,46.75 7.46,45.38 7.91,44.84 8.37,44.71 8.82,44.68 9.28,44.67 9.73,44.67 10.19,44.67 10.65,44.67 11.10,44.67 11.56,44.67 12.01,44.67 12.47,44.67 12.92,44.67 13.38,44.67 13.84,44.67 14.29,44.68 14.75,44.73 15.20,44.92 15.66,45.64 16.11,47.16 16.57,48.33 17.03,48.71 17.48,48.80 17.94,48.83 18.39,48.83 18.85,48.83 19.30,48.83 19.76,48.83 20.22,48.83 20.67,48.83 21.13,48.83 21.58,48.83 22.04,48.83 22.49,48.83 22.95,48.83 23.41,48.81 23.86,48.75 24.32,48.48 24.77,47.54 25.23,45.96 25.68,45.02 26.14,44.75 26.59,44.69 27.05,44.67 27.51,44.67 27.96,44.67 28.42,44.67 28.87,44.67 29.33,44.67 29.78,44.67 30.24,44.67 30.70,44.67 31.15,44.67 31.61,44.67 32.06,44.67 32.52,44.70 32.97,44.79 33.43,45.17 33.89,46.34 34.34,47.86 34.80,48.58 35.25,48.77 35.71,48.82 36.16,48.83 36.62,48.83 37.08,48.83 37.53,48.83 37.99,48.83 38.44,48.83 38.90,48.83 39.35,48.83 39.81,48.83 40.27,48.83 40.72,48.83 41.18,48.82 41.63,48.79 42.09,48.66 42.54,48.12 43.00,46.75" fill="none" stroke="#56B4E9" stroke-width="0.9" stroke-linejoin="round" stroke-linecap="round"/>
  <polyline points="7.00,52.92 7.46,52.92 7.91,52.92 8.37,52.92 8.82,52.92 9.28,52.92 9.73,52.90 10.19,52.74 10.65,51.97 11.10,51.02 11.56,50.83 12.01,51.50 12.47,52.49 12.92,52.87 13.38,52.92 13.84,52.92 14.29,52.92 14.75,52.92 15.20,52.92 15.66,52.92 16.11,52.92 16.57,52.92 17.03,52.91 17.48,52.74 17.94,52.02 18.39,51.44 18.85,52.12 19.30,52.77 19.76,52.91 20.22,52.92 20.67,52.92 21.13,52.92 21.58,52.92 22.04,52.92 22.49,52.92 22.95,52.92 23.41,52.92 23.86,52.92 24.32,52.92 24.77,52.92 25.23,52.92 25.68,52.92 26.14,52.92 26.59,52.92 27.05,52.92 27.51,52.91 27.96,52.81 28.42,52.22 28.87,51.46 29.33,51.92 29.78,52.69 30.24,52.90 30.70,52.92 31.15,52.92 31.61,52.92 32.06,52.92 32.52,52.91 32.97,52.84 33.43,52.34 33.89,51.51 34.34,51.80 34.80,52.62 35.25,52.89 35.71,52.92 36.16,52.92 36.62,52.92 37.08,52.92 37.53,52.92 37.99,52.92 38.44,52.92 38.90,52.92 39.35,52.92 39.81,52.92 40.27,52.92 40.72,52.92 41.18,52.92 41.63,52.92 42.09,52.92 42.54,52.92 43.00,52.92" fill="none" stroke="#009E73" stroke-width="0.9" stroke-linejoin="round" stroke-linecap="round"/>
  <line x1="46.00" y1="41.00" x2="74.00" y2="41.00" stroke="#333333" stroke-width="0.9" marker-end="url(#arrow)"/>
  <text x="60.00" y="35.00" text-anchor="middle" font-family="Helvetica, Arial, sans-serif" font-size="4.3" fill="#1A1A1A">mixing A</text>
  <rect x="74.00" y="24.00" width="42.00" height="34.00" rx="2" fill="#FAFAFA" stroke="#333333" stroke-width="0.7"/>
  <text x="95.00" y="30.50" text-anchor="middle" font-family="Helvetica, Arial, sans-serif" font-size="4.3" font-weight="600" fill="#1A1A1A">Observations</text>
  <text x="95.00" y="36.00" text-anchor="middle" font-family="Helvetica, Arial, sans-serif" font-size="4.3" font-style="italic" fill="#1A1A1A">x(t)</text>
  <polyline points="77.00,40.58 77.46,39.79 77.91,39.30 78.37,38.99 78.82,38.75 79.28,38.59 79.73,38.51 80.19,38.55 80.65,38.82 81.10,39.23 81.56,39.49 82.01,39.58 82.47,39.62 82.92,39.84 83.38,40.16 83.84,40.48 84.29,40.76 84.75,41.01 85.20,41.24 85.66,41.58 86.11,42.11 86.57,42.44 87.03,42.44 87.48,42.31 87.94,42.25 88.39,42.11 88.85,41.60 89.30,41.10 89.76,40.74 90.22,40.45 90.67,40.21 91.13,40.03 91.58,39.92 92.04,39.89 92.49,39.93 92.95,40.05 93.41,40.24 93.86,40.47 94.32,40.67 94.77,40.68 95.23,40.49 95.68,40.49 96.14,40.70 96.59,40.93 97.05,41.11 97.51,41.24 97.96,41.31 98.42,41.43 98.87,41.53 99.33,41.22 99.78,40.77 100.24,40.43 100.70,40.11 101.15,39.78 101.61,39.45 102.06,39.15 102.52,38.90 102.97,38.75 103.43,38.88 103.89,39.43 104.34,39.88 104.80,40.00 105.25,40.16 105.71,40.40 106.16,40.69 106.62,41.00 107.08,41.34 107.53,41.66 107.99,41.97 108.44,42.24 108.90,42.45 109.35,42.59 109.81,42.67 110.27,42.66 110.72,42.57 111.18,42.41 111.63,42.18 112.09,41.86 112.54,41.37 113.00,40.58" fill="none" stroke="#E69F00" stroke-width="0.9" stroke-linejoin="round" stroke-linecap="round"/>
  <polyline points="77.00,46.75 77.46,45.86 77.91,45.46 78.37,45.31 78.82,45.24 79.28,45.19 79.73,45.16 80.19,45.11 80.65,44.91 81.10,44.67 81.56,44.67 82.01,44.93 82.47,45.31 82.92,45.50 83.38,45.60 83.84,45.69 84.29,45.77 84.75,45.85 85.20,46.01 85.66,46.46 86.11,47.35 86.57,48.02 87.03,48.21 87.48,48.16 87.94,47.90 88.39,47.65 88.85,47.76 89.30,47.87 89.76,47.83 90.22,47.75 90.67,47.69 91.13,47.64 91.58,47.61 92.04,47.60 92.49,47.62 92.95,47.64 93.41,47.69 93.86,47.71 94.32,47.63 94.77,47.17 95.23,46.33 95.68,45.87 96.14,45.79 96.59,45.81 97.05,45.86 97.51,45.88 97.96,45.86 98.42,45.68 98.87,45.43 99.33,45.52 99.78,45.68 100.24,45.67 100.70,45.59 101.15,45.50 101.61,45.42 102.06,45.34 102.52,45.28 102.97,45.26 103.43,45.31 103.89,45.73 104.34,46.71 104.80,47.40 105.25,47.64 105.71,47.73 106.16,47.81 106.62,47.90 107.08,47.98 107.53,48.07 107.99,48.15 108.44,48.22 108.90,48.28 109.35,48.32 109.81,48.33 110.27,48.33 110.72,48.31 111.18,48.26 111.63,48.19 112.09,48.04 112.54,47.64 113.00,46.75" fill="none" stroke="#56B4E9" stroke-width="0.9" stroke-linejoin="round" stroke-linecap="round"/>
  <polyline points="77.00,52.92 77.46,52.62 77.91,52.57 78.37,52.62 78.82,52.68 79.28,52.73 79.73,52.75 80.19,52.63 80.65,52.05 81.10,51.30 81.56,51.10 82.01,51.50 82.47,52.12 82.92,52.29 83.38,52.22 83.84,52.11 84.29,52.03 84.75,51.96 85.20,51.96 85.66,52.14 86.11,52.58 86.57,52.94 87.03,53.09 87.48,53.06 87.94,52.63 88.39,52.31 88.85,52.91 89.30,53.49 89.76,53.70 90.22,53.80 90.67,53.88 91.13,53.94 91.58,53.97 92.04,53.98 92.49,53.97 92.95,53.93 93.41,53.86 93.86,53.76 94.32,53.58 94.77,53.20 95.23,52.63 95.68,52.25 96.14,52.08 96.59,51.97 97.05,51.91 97.51,51.86 97.96,51.77 98.42,51.35 98.87,50.83 99.33,51.23 99.78,51.87 100.24,52.12 100.70,52.23 101.15,52.34 101.61,52.45 102.06,52.55 102.52,52.64 102.97,52.68 103.43,52.47 103.89,52.23 104.34,52.87 104.80,53.66 105.25,53.85 105.71,53.81 106.16,53.72 106.62,53.62 107.08,53.51 107.53,53.40 107.99,53.30 108.44,53.21 108.90,53.14 109.35,53.09 109.81,53.07 110.27,53.07 110.72,53.10 111.18,53.15 111.63,53.21 112.09,53.27 112.54,53.21 113.00,52.92" fill="none" stroke="#009E73" stroke-width="0.9" stroke-linejoin="round" stroke-linecap="round"/>
  <line x1="116.00" y1="41.00" x2="144.00" y2="41.00" stroke="#333333" stroke-width="0.9" marker-end="url(#arrow)"/>
  <text x="130.00" y="29.00" text-anchor="middle" font-family="Helvetica, Arial, sans-serif" font-size="4.3" fill="#1A1A1A">unmixing W</text>
  <text x="130.00" y="34.00" text-anchor="middle" font-family="Helvetica, Arial, sans-serif" font-size="4.3" fill="#1A1A1A">(estimated)</text>
  <rect x="144.00" y="24.00" width="42.00" height="34.00" rx="2" fill="#FAFAFA" stroke="#333333" stroke-width="0.7"/>
  <text x="165.00" y="30.50" text-anchor="middle" font-family="Helvetica, Arial, sans-serif" font-size="4.3" font-weight="600" fill="#1A1A1A">Recovered</text>
  <text x="165.00" y="36.00" text-anchor="middle" font-family="Helvetica, Arial, sans-serif" font-size="4.3" font-style="italic" fill="#1A1A1A">y(t) ≈ s(t)</text>
  <polyline points="147.00,40.63 147.46,40.19 147.91,39.71 148.37,39.27 148.82,39.10 149.28,38.74 149.73,38.68 150.19,38.64 150.65,38.74 151.10,38.93 151.56,39.19 152.01,39.54 152.47,40.04 152.92,40.42 153.38,41.02 153.84,41.41 154.29,41.78 154.75,42.16 155.20,42.45 155.66,42.60 156.11,42.60 156.57,42.48 157.03,42.36 157.48,42.02 157.94,41.65 158.39,41.17 158.85,40.73 159.30,40.25 159.76,39.85 160.22,39.41 160.67,39.01 161.13,38.71 161.58,38.71 162.04,38.50 162.49,38.58 162.95,38.78 163.41,39.09 163.86,39.48 164.32,39.80 164.77,40.23 165.23,40.71 165.68,41.20 166.14,41.68 166.59,42.13 167.05,42.34 167.51,42.47 167.96,42.65 168.42,42.51 168.87,42.35 169.33,42.07 169.78,41.84 170.24,41.39 170.70,40.93 171.15,40.49 171.61,39.86 172.06,39.56 172.52,39.14 172.97,38.89 173.43,38.58 173.89,38.51 174.34,38.58 174.80,38.89 175.25,39.00 175.71,39.30 176.16,39.68 176.62,40.23 177.08,40.55 177.53,41.21 177.99,41.61 178.44,41.89 178.90,42.25 179.35,42.34 179.81,42.56 180.27,42.60 180.72,42.46 181.18,42.27 181.63,41.97 182.09,41.46 182.54,41.02 183.00,40.51" fill="none" stroke="#E69F00" stroke-width="0.9" stroke-linejoin="round" stroke-linecap="round"/>
  <polyline points="147.00,46.79 147.46,45.37 147.91,44.99 148.37,44.75 148.82,44.84 149.28,44.85 149.73,44.79 150.19,44.75 150.65,44.80 151.10,44.84 151.56,44.88 152.01,44.89 152.47,44.78 152.92,44.75 153.38,44.82 153.84,44.87 154.29,44.77 154.75,44.94 155.20,45.08 155.66,45.68 156.11,47.26 156.57,48.20 157.03,48.61 157.48,48.66 157.94,48.69 158.39,48.68 158.85,48.65 159.30,48.74 159.76,48.61 160.22,48.65 160.67,48.64 161.13,48.63 161.58,48.65 162.04,48.64 162.49,48.69 162.95,48.77 163.41,48.68 163.86,48.66 164.32,48.44 164.77,47.47 165.23,46.05 165.68,45.20 166.14,44.95 166.59,44.81 167.05,44.79 167.51,44.73 167.96,44.81 168.42,44.75 168.87,44.72 169.33,44.74 169.78,44.94 170.24,44.73 170.70,44.79 171.15,44.78 171.61,44.79 172.06,44.79 172.52,44.82 172.97,44.94 173.43,45.39 173.89,46.37 174.34,47.83 174.80,48.40 175.25,48.66 175.71,48.67 176.16,48.74 176.62,48.72 177.08,48.69 177.53,48.78 177.99,48.68 178.44,48.70 178.90,48.76 179.35,48.83 179.81,48.66 180.27,48.71 180.72,48.72 181.18,48.70 181.63,48.55 182.09,48.53 182.54,48.03 183.00,46.84" fill="none" stroke="#56B4E9" stroke-width="0.9" stroke-linejoin="round" stroke-linecap="round"/>
  <polyline points="147.00,52.81 147.46,52.86 147.91,52.85 148.37,52.91 148.82,52.86 149.28,52.89 149.73,52.86 150.19,52.73 150.65,52.01 151.10,50.83 151.56,50.84 152.01,51.43 152.47,52.48 152.92,52.94 153.38,52.87 153.84,52.93 154.29,52.95 154.75,52.88 155.20,52.95 155.66,52.82 156.11,52.89 156.57,52.95 157.03,53.03 157.48,52.82 157.94,51.90 158.39,51.36 158.85,52.09 159.30,52.66 159.76,52.99 160.22,52.96 160.67,52.95 161.13,52.88 161.58,52.96 162.04,52.96 162.49,53.02 162.95,52.87 163.41,52.86 163.86,52.95 164.32,52.91 164.77,53.00 165.23,52.95 165.68,52.83 166.14,52.91 166.59,52.76 167.05,52.97 167.51,52.87 167.96,52.81 168.42,52.14 168.87,51.38 169.33,51.90 169.78,52.74 170.24,52.70 170.70,52.92 171.15,53.05 171.61,52.96 172.06,52.87 172.52,52.95 172.97,52.74 173.43,52.24 173.89,51.44 174.34,51.76 174.80,52.67 175.25,52.94 175.71,53.01 176.16,52.84 176.62,52.81 177.08,53.00 177.53,52.99 177.99,53.03 178.44,52.98 178.90,53.12 179.35,52.99 179.81,52.83 180.27,52.94 180.72,52.86 181.18,52.95 181.63,52.80 182.09,52.90 182.54,52.94 183.00,52.75" fill="none" stroke="#009E73" stroke-width="0.9" stroke-linejoin="round" stroke-linecap="round"/>
</svg>
